<svg width="248" height="248" viewBox="0 0 248 248" fill="none" xmlns="http://www.w3.org/2000/svg">
<rect width="248" height="248" fill="white"/>
<path fill-rule="evenodd" clip-rule="evenodd" d="M26.0522 18H222L221.896 126.228C221.896 201.187 173.054 238.246 124.212 238.087C75.3169 237.878 26.368 200.345 26 126.228L26.0522 18Z" fill="#CC2229"/>
<path fill-rule="evenodd" clip-rule="evenodd" d="M203.632 94.8008H149.528V44.3198H96.8948V94.8008H45.7363V147.441H96.8948V202.239H149.528V147.441H203.632V94.8008Z" fill="white"/>
<g filter="url(#filter0_d_31_18)">
<path d="M167.677 53.8766C167.084 52.7507 166.195 52 165.009 52H114.611C113.425 52 112.535 52.7507 111.942 54.252L88.2257 114.304C87.6327 115.43 87.9292 116.932 88.2257 118.058C88.8186 119.184 89.7079 119.934 90.8938 119.934H107.199L82.2965 189.745C81.7035 191.247 82 193.123 83.1858 194.249C83.7788 194.625 84.3717 195 84.9646 195C85.5575 195 86.4469 194.625 86.7434 194.249L157.894 119.184C158.783 118.058 159.079 116.556 158.783 115.055C158.487 113.178 157.301 112.052 156.115 112.052H138.031L167.38 58.0053C167.973 56.8793 168.27 55.378 167.677 53.8766Z" fill="#F4DC00"/>
</g>
<defs>
<filter id="filter0_d_31_18" x="78" y="52" width="94" height="151" filterUnits="userSpaceOnUse" color-interpolation-filters="sRGB">
<feFlood flood-opacity="0" result="BackgroundImageFix"/>
<feColorMatrix in="SourceAlpha" type="matrix" values="0 0 0 0 0 0 0 0 0 0 0 0 0 0 0 0 0 0 127 0" result="hardAlpha"/>
<feOffset dy="4"/>
<feGaussianBlur stdDeviation="2"/>
<feComposite in2="hardAlpha" operator="out"/>
<feColorMatrix type="matrix" values="0 0 0 0 0 0 0 0 0 0 0 0 0 0 0 0 0 0 0.5 0"/>
<feBlend mode="normal" in2="BackgroundImageFix" result="effect1_dropShadow_31_18"/>
<feBlend mode="normal" in="SourceGraphic" in2="effect1_dropShadow_31_18" result="shape"/>
</filter>
</defs>
</svg>
